<mxfile host="app.diagrams.net" modified="2023-11-04T11:49:12.857Z" agent="Mozilla/5.0 (Windows NT 10.0; Win64; x64) AppleWebKit/537.36 (KHTML, like Gecko) Chrome/118.0.0.0 Safari/537.36" version="22.0.8" etag="UM7Wloyee8i1Tm_H7z02" type="github">
  <diagram name="第 1 页" id="wLnerqmyWO842I0ShBnf">
    <mxGraphModel>
      <root>
        <mxCell id="0" />
        <mxCell id="1" parent="0" />
      </root>
    </mxGraphModel>
  </diagram>
</mxfile>
